# xmcd CD database file
#
# Track frame offsets:
#	150
#	17680
#	32104
#	49341
#	63290
#	79872
#	96523
#	115535
#	134400
#	145670
#	160522
#	177046
#	192530
#
# Disc length: 2793 seconds
#
# Revision: 0
# Processed by: cddbd v1.5.2PL0 Copyright (c) Steve Scherf et al.
# Submitted via: CDex 1.51
#
DISCID=aa0ae70d
DTITLE=Dennis Locorriere - Post Cool
DYEAR=2010
DGENRE=Blues
TTITLE0=This Guitar
TTITLE1=Crashing Down
TTITLE2=Dance On Daddy's Feet
TTITLE3=She Don't Care
TTITLE4=Call Me
TTITLE5=Ask Her
TTITLE6=Don't Seem Right
TTITLE7=The Sound Of A Train
TTITLE8=I'm Impressed With Myself
TTITLE9=You, Yourself And I
TTITLE10=Sinking Ship
TTITLE11=Standing As Tall As I Can
TTITLE12=Different Faces
EXTD=YEAR: 2010
EXTT0=
EXTT1=
EXTT2=
EXTT3=
EXTT4=
EXTT5=
EXTT6=
EXTT7=
EXTT8=
EXTT9=
EXTT10=
EXTT11=
EXTT12=
PLAYORDER=
